<svg id="Слой_1" data-name="Слой 1" xmlns="http://www.w3.org/2000/svg" viewBox="0 0 585.17 221.86"><defs><style>.cls-1,.cls-2{fill:#e6e6e6;}.cls-1{fill-rule:evenodd;}</style></defs><title>logo-ad</title><path class="cls-1" d="M493.37,72.35V95.79l5.33,8.52v-32Z"/><polygon class="cls-1" points="585.17 72.35 585.17 176.65 0 176.65 0 72.35 5.32 72.35 5.32 171.55 579.88 171.56 579.88 72.35 585.17 72.35"/><polygon class="cls-1" points="585.17 151.02 585.17 46.72 0 46.72 0 151.01 5.32 151.02 5.32 51.81 579.88 51.81 579.88 151.02 585.17 151.02"/><polygon class="cls-1" points="91.99 218.51 91.99 197.3 94.06 197.33 94.06 216.53 101.19 216.53 101.19 218.51 91.99 218.51"/><path class="cls-1" d="M137.71,207.84a9.22,9.22,0,0,0,2.61,6.51,8.87,8.87,0,0,0,2.89,2,9.58,9.58,0,0,0,7.23,0,8.79,8.79,0,0,0,2.89-2,9.14,9.14,0,0,0,1.92-2.92,9.28,9.28,0,0,0,.09-6.82,9.11,9.11,0,0,0-1.76-2.92,8.88,8.88,0,0,0-2.86-2.1,9.86,9.86,0,0,0-7.79,0,8.88,8.88,0,0,0-2.86,2.1,9,9,0,0,0-1.76,2.92,9.23,9.23,0,0,0-.61,3.23Zm-2.23.09h0a10.4,10.4,0,0,1,1.06-4.77,11.07,11.07,0,0,1,2.7-3.49,12,12,0,0,1,3.66-2.13,11,11,0,0,1,7.85,0,11.86,11.86,0,0,1,3.67,2.13,11,11,0,0,1,2.7,3.49,10.46,10.46,0,0,1,1.06,4.77,10.71,10.71,0,0,1-.84,4.14,11.11,11.11,0,0,1-2.35,3.54,11.79,11.79,0,0,1-3.58,2.46,11.78,11.78,0,0,1-9.15,0,11.77,11.77,0,0,1-3.59-2.46,11,11,0,0,1-2.35-3.54A10.76,10.76,0,0,1,135.48,207.94Z"/><path class="cls-1" d="M205.07,211.8a7.93,7.93,0,0,1-.56,3,6.32,6.32,0,0,1-1.56,2.27,6.62,6.62,0,0,1-2.4,1.4,9.25,9.25,0,0,1-3.06.48,9.64,9.64,0,0,1-2.92-.43,6.86,6.86,0,0,1-2.43-1.33A6.2,6.2,0,0,1,190.5,215a7.85,7.85,0,0,1-.6-3.19V197.3H192v14.56a5.23,5.23,0,0,0,.45,2.22,4.7,4.7,0,0,0,1.22,1.61,5.49,5.49,0,0,0,1.78,1,6.45,6.45,0,0,0,2.08.34,6.3,6.3,0,0,0,2.48-.45,4.48,4.48,0,0,0,1.72-1.24,5.33,5.33,0,0,0,1-1.82,7.33,7.33,0,0,0,.33-2.24v-14h2.07Z"/><polygon class="cls-1" points="250.27 213.66 250.4 213.66 250.4 197.3 252.47 197.33 252.47 219 237.79 202.13 237.7 202.16 237.7 218.51 235.63 218.51 235.63 196.81 250.27 213.66"/><path class="cls-1" d="M296.56,201.26a9.44,9.44,0,0,0-1.13-.9,9.62,9.62,0,0,0-1.42-.79,9.25,9.25,0,0,0-1.72-.57,8.58,8.58,0,0,0-2-.22,8.76,8.76,0,0,0-6.17,2.55,9.22,9.22,0,0,0-1.94,2.94,9.6,9.6,0,0,0-.73,3.79,9.25,9.25,0,0,0,.61,3.28,8.86,8.86,0,0,0,1.76,2.87,8.64,8.64,0,0,0,2.85,2,9,9,0,0,0,3.82.77,8.82,8.82,0,0,0,5.66-1.95v-6H289.8v-2h8.59v9a13.54,13.54,0,0,1-2.29,1.53,13.37,13.37,0,0,1-2.13.88,10.17,10.17,0,0,1-1.92.4,15.51,15.51,0,0,1-1.58.09,11.38,11.38,0,0,1-4.86-1,10.87,10.87,0,0,1-3.51-2.53A10.5,10.5,0,0,1,280,212a11.36,11.36,0,0,1-.71-3.89A11.86,11.86,0,0,1,280,204a11.09,11.09,0,0,1,2.16-3.62,10.8,10.8,0,0,1,3.51-2.58,11,11,0,0,1,4.78-1,13,13,0,0,1,1.72.12,10.47,10.47,0,0,1,1.86.43,11,11,0,0,1,1.91.85,10.29,10.29,0,0,1,1.93,1.4Z"/><polygon class="cls-1" points="329.48 218.51 329.48 197.3 341.1 197.3 341.1 199.28 331.55 199.28 331.55 206.76 340.05 206.76 340.05 208.74 331.55 208.74 331.55 216.53 341.1 216.53 341.1 218.51 329.48 218.51"/><path class="cls-1" d="M396.05,216.53h4.05a4.72,4.72,0,0,0,1.6-.26,3.83,3.83,0,0,0,1.3-.76,3.48,3.48,0,0,0,.86-1.19,3.74,3.74,0,0,0,.31-1.53,4.15,4.15,0,0,0-.3-1.59,3.52,3.52,0,0,0-.85-1.27,4,4,0,0,0-1.31-.85,4.39,4.39,0,0,0-1.68-.31h-4v7.76Zm0-9.74h3.55a4.56,4.56,0,0,0,1.92-.35,3.61,3.61,0,0,0,1.26-.92,3.4,3.4,0,0,0,.68-1.2,4.26,4.26,0,0,0,.2-1.24,3.56,3.56,0,0,0-.3-1.46,3.74,3.74,0,0,0-.83-1.21,3.92,3.92,0,0,0-1.35-.83,5.09,5.09,0,0,0-1.83-.31h-3.31v7.51ZM394,197.3h5.41a7.71,7.71,0,0,1,2.67.44,6,6,0,0,1,2,1.19,5.3,5.3,0,0,1,1.28,1.76,5.21,5.21,0,0,1,.45,2.15,5.88,5.88,0,0,1-.68,2.78,4.54,4.54,0,0,1-2.25,2v.09a5.41,5.41,0,0,1,2.51,1.8,5,5,0,0,1,1,3.21A5.86,5.86,0,0,1,406,215a5.09,5.09,0,0,1-1.3,1.82,6.08,6.08,0,0,1-2.08,1.21,8.47,8.47,0,0,1-2.79.43H394Z"/><polygon class="cls-1" points="446.43 208.31 444.68 204.77 444.68 204.77 444.68 204.77 444.67 204.76 444.67 204.75 442.93 201.23 441.87 199.12 442.96 196.91 443.03 196.91 453.81 218.61 451.56 218.61 447.42 210.29 438.42 210.29 434.31 218.61 432.18 218.61 437.3 208.31 439.41 208.31 439.57 208.31 439.76 208.31 439.95 208.31 440.13 208.31 440.32 208.31 440.5 208.31 440.67 208.31 440.85 208.31 441.01 208.31 441.18 208.31 441.34 208.31 441.5 208.31 441.66 208.31 441.81 208.31 441.96 208.31 442.11 208.31 442.26 208.31 442.4 208.31 442.54 208.31 442.67 208.31 442.81 208.31 442.93 208.31 443.06 208.31 443.18 208.31 443.3 208.31 443.42 208.31 443.54 208.31 443.65 208.31 443.76 208.31 446.43 208.31"/><path class="cls-1" d="M480.17,208.28h2.6a4.34,4.34,0,0,0,1.78-.36,4.39,4.39,0,0,0,2.36-2.38,4.53,4.53,0,0,0,.34-1.78,4.46,4.46,0,0,0-.31-1.65,4.15,4.15,0,0,0-2.31-2.36,5,5,0,0,0-2-.37h-2.47v8.9Zm2.32-10.88h0a8.21,8.21,0,0,1,3.08.53,6.23,6.23,0,0,1,2.18,1.4,5.67,5.67,0,0,1,1.29,2,6.8,6.8,0,0,1,.06,4.61,6.06,6.06,0,0,1-1.06,1.88,5.63,5.63,0,0,1-1.7,1.36,5.87,5.87,0,0,1-2.3.62l7.45,8.78h-2.81l-8.37-10.08h-.13v10.08H478.1V197.4Z"/><path class="cls-1" d="M39.89,76.2H55.31c13.1,0,20.86,3.88,20.86,14.55,0,12.86-10.31,17.58-15.65,17.58H58.64V112h2.13c12.25,0,20,4.49,20,15.77,0,12.37-7.15,19.4-25.59,19.4H39.89v-71Zm15.54,75h0c22,0,30.44-9.09,30.44-23.28,0-10.67-6.31-16.74-16.74-18.56,5.82-2.91,12-9,12-19,0-11.89-8.73-18-25.59-18H24.65V76.2h9.92v71.1H24.65v3.83Z"/><path class="cls-1" d="M147,76.69l28.12,70.62h-8.72v3.83h24.33l0-3.83H180.69l-29.91-75h-7l-30,75h-9.87l0,3.82h23.74l0-3.83h-8.9C128.22,123.69,137.66,100.3,147,76.69Z"/><polygon class="cls-1" points="269.78 151.13 269.78 134.54 264.47 134.53 264.47 147.3 225.38 147.3 225.38 76.33 235.31 76.32 235.32 72.32 209.13 72.32 209.13 76.32 220.07 76.32 220.04 147.33 210.07 147.3 210.05 151.13 269.78 151.13"/><path class="cls-1" d="M348.72,84.63V72.08h-4.37v5.46a34,34,0,0,0-19.65-6.43c-22.2,0-38.81,14.79-38.81,40.14,0,25.11,15,41.24,39.18,41.24,20.86,0,30.08-13.95,30.08-13.95L353.08,135a34.6,34.6,0,0,1-27.53,13.1c-20.38,0-34.21-14.19-34.21-36.87,0-23,14.44-35.78,34.08-35.78C336.27,75.47,340.44,79.85,348.72,84.63Z"/><path class="cls-1" d="M434.11,72.32a41.89,41.89,0,1,0,13.51,9,41.65,41.65,0,0,0-13.51-9Zm-1.89,4.55h0a36.76,36.76,0,1,1-14-2.79A36.82,36.82,0,0,1,432.21,76.88Z"/><path class="cls-1" d="M541.4,143V72.32H559v4H546.85c0,24.88,0,49.89,0,74.79h-6.94L494.06,72.35h5.58L541.4,143Zm-42.7,8.12V112.22l-5.33-8.5V147.3H479.65v3.82ZM484.46,72.32h-5.58l46.89,78.81h6.28C511.17,115.89,502.29,102.41,484.46,72.32Z"/><path class="cls-2" d="M27.7,28.89V6.31H40.52V8.42H30v7.69h4.59a10.63,10.63,0,0,1,3.13.43,7.09,7.09,0,0,1,2.41,1.24,5.44,5.44,0,0,1,1.55,2,6.46,6.46,0,0,1,.54,2.69,6.28,6.28,0,0,1-.56,2.71,5.77,5.77,0,0,1-1.56,2,6.9,6.9,0,0,1-2.42,1.26,10.79,10.79,0,0,1-3.14.43Zm6.7-2.1a6.51,6.51,0,0,0,4.16-1.16A3.85,3.85,0,0,0,40,22.45a3.64,3.64,0,0,0-1.5-3.17,7,7,0,0,0-4.11-1.07H30v8.58Z"/><path class="cls-2" d="M72.44,17.6a12.37,12.37,0,0,1-.89,4.75,11.2,11.2,0,0,1-6.2,6.22,12.66,12.66,0,0,1-9.34,0,11.2,11.2,0,0,1-6.2-6.22,12.36,12.36,0,0,1-.89-4.75,12.36,12.36,0,0,1,.89-4.75A11.21,11.21,0,0,1,56,6.63a12.66,12.66,0,0,1,9.34,0,11.21,11.21,0,0,1,6.2,6.22A12.37,12.37,0,0,1,72.44,17.6Zm-2.42,0a11.06,11.06,0,0,0-.64-3.76,9.38,9.38,0,0,0-1.85-3.14,8.85,8.85,0,0,0-2.95-2.15,10,10,0,0,0-7.81,0,8.84,8.84,0,0,0-2.95,2.15A9.36,9.36,0,0,0,52,13.86a11.38,11.38,0,0,0,0,7.51,9.19,9.19,0,0,0,1.85,3.12,9,9,0,0,0,2.95,2.13,10,10,0,0,0,7.81,0,9,9,0,0,0,2.95-2.13,9.21,9.21,0,0,0,1.85-3.12A11.06,11.06,0,0,0,70,17.62Z"/><path class="cls-2" d="M80.06,28.89H77.54L87.3,6.31h2.23l9.69,22.58H96.68L88.36,9.18Z"/><path class="cls-2" d="M104.91,6.31h2.3V15.5h4a9.61,9.61,0,0,1,3.13.48,7.24,7.24,0,0,1,2.41,1.34,5.83,5.83,0,0,1,1.55,2.09,6.81,6.81,0,0,1,.54,2.77,6.63,6.63,0,0,1-.56,2.76,6.13,6.13,0,0,1-1.56,2.11,7.07,7.07,0,0,1-2.42,1.36,9.75,9.75,0,0,1-3.14.48h-6.22Zm2.3,11.23v9.31H111a5.75,5.75,0,0,0,4.1-1.34,4.41,4.41,0,0,0,1.42-3.35,4.24,4.24,0,0,0-1.45-3.36A6,6,0,0,0,111,17.54Z"/><path class="cls-2" d="M138.14,26.79V6.31h2.3V26.79h9.22V6.31h2.3V28.89H126.4V6.31h2.3V26.79Z"/><path class="cls-2" d="M183.26,17.6a12.37,12.37,0,0,1-.89,4.75,11.2,11.2,0,0,1-6.2,6.22,12.66,12.66,0,0,1-9.34,0,11.2,11.2,0,0,1-6.2-6.22,12.36,12.36,0,0,1-.89-4.75,12.36,12.36,0,0,1,.89-4.75,11.21,11.21,0,0,1,6.2-6.22,12.66,12.66,0,0,1,9.34,0,11.21,11.21,0,0,1,6.2,6.22A12.37,12.37,0,0,1,183.26,17.6Zm-2.42,0a11.06,11.06,0,0,0-.64-3.76,9.38,9.38,0,0,0-1.85-3.14,8.85,8.85,0,0,0-2.95-2.15,10,10,0,0,0-7.81,0,8.84,8.84,0,0,0-2.95,2.15,9.36,9.36,0,0,0-1.85,3.14,11.38,11.38,0,0,0,0,7.51,9.19,9.19,0,0,0,1.85,3.12,9,9,0,0,0,2.95,2.13,10,10,0,0,0,7.81,0,9,9,0,0,0,2.95-2.13,9.21,9.21,0,0,0,1.85-3.12A11.06,11.06,0,0,0,180.84,17.62Z"/><path class="cls-2" d="M206.54,6.31h2.87V28.89h-2.3V9.47h-.06L193.91,28.89H191V6.31h2.3V25.54h.06ZM196.21,0a4.14,4.14,0,0,0,1.45,1.93,4.14,4.14,0,0,0,2.57.78,4.14,4.14,0,0,0,2.57-.78A4.15,4.15,0,0,0,204.25,0l1.63.77a5.28,5.28,0,0,1-.75,1.4,5.48,5.48,0,0,1-1.2,1.18,5.52,5.52,0,0,1-1.63.8,7,7,0,0,1-2.07.29,7,7,0,0,1-2.07-.29,5.51,5.51,0,0,1-1.63-.8,5.47,5.47,0,0,1-1.2-1.18,5.25,5.25,0,0,1-.75-1.4Z"/><path class="cls-2" d="M245.64,6.31V28.89h-2.3V8.42H231.67V28.89h-2.3V6.31Z"/><path class="cls-2" d="M254.63,6.31H261a12.38,12.38,0,0,1,3.13.37,6.89,6.89,0,0,1,2.41,1.12,5,5,0,0,1,1.55,1.88,6.12,6.12,0,0,1,.54,2.66,6,6,0,0,1-.56,2.66,5.16,5.16,0,0,1-1.56,1.88A7.09,7.09,0,0,1,264.09,18a12.07,12.07,0,0,1-3.14.38h-4V28.89h-2.3Zm2.3,10.14h3.89a6.79,6.79,0,0,0,4.11-1.05,3.59,3.59,0,0,0,1.4-3.06,3.44,3.44,0,0,0-1.45-3.08,7.26,7.26,0,0,0-4.07-1h-3.89Z"/><path class="cls-2" d="M298.45,17.6a12.35,12.35,0,0,1-.89,4.75,11.19,11.19,0,0,1-6.2,6.22,12.66,12.66,0,0,1-9.34,0,11.2,11.2,0,0,1-6.2-6.22,12.36,12.36,0,0,1-.89-4.75,12.36,12.36,0,0,1,.89-4.75A11.21,11.21,0,0,1,282,6.63a12.66,12.66,0,0,1,9.34,0,11.2,11.2,0,0,1,6.2,6.22A12.35,12.35,0,0,1,298.45,17.6Zm-2.42,0a11.1,11.1,0,0,0-.64-3.76,9.4,9.4,0,0,0-1.85-3.14,8.85,8.85,0,0,0-2.95-2.15,10,10,0,0,0-7.81,0,8.84,8.84,0,0,0-2.95,2.15A9.36,9.36,0,0,0,278,13.86a11.38,11.38,0,0,0,0,7.51,9.19,9.19,0,0,0,1.85,3.12,9,9,0,0,0,2.95,2.13,10,10,0,0,0,7.81,0,9,9,0,0,0,2.95-2.13,9.23,9.23,0,0,0,1.85-3.12A11.1,11.1,0,0,0,296,17.62Z"/><path class="cls-2" d="M325.24,25.23a9.45,9.45,0,0,1-1.39,1.63A9,9,0,0,1,322,28.2a10.52,10.52,0,0,1-2.36.92,11.12,11.12,0,0,1-2.82.34,12.27,12.27,0,0,1-4.72-.89,11,11,0,0,1-6.17-6.22A12.55,12.55,0,0,1,305,17.6a12.35,12.35,0,0,1,.89-4.75,11.21,11.21,0,0,1,6.2-6.22,12.08,12.08,0,0,1,4.67-.89,11.65,11.65,0,0,1,4.69,1,9.58,9.58,0,0,1,1.91,1.13,6.6,6.6,0,0,1,1.43,1.49l-1.91,1.4A5.81,5.81,0,0,0,322,9.66a6.45,6.45,0,0,0-1.39-1A8.73,8.73,0,0,0,318.85,8a7.71,7.71,0,0,0-2-.26,9.37,9.37,0,0,0-3.94.79,8.86,8.86,0,0,0-3,2.15,9.35,9.35,0,0,0-1.85,3.13,11,11,0,0,0-.64,3.75,10.81,10.81,0,0,0,.65,3.75A9.57,9.57,0,0,0,310,24.49a8.84,8.84,0,0,0,2.95,2.15,9.28,9.28,0,0,0,3.91.79,8.83,8.83,0,0,0,3.7-.8,7,7,0,0,0,2.93-2.55Z"/><path class="cls-2" d="M348.46,6.31V28.89h-2.3V8.42H334.49V28.89h-2.3V6.31Z"/><path class="cls-2" d="M359.75,26.85h12.09v2H357.45V6.31h14v2h-11.7v7.75h10.94v2H359.75Z"/><path class="cls-2" d="M379.33,28.89V6.31h2.3v9.6q.89,0,1.71.06t1.61.16l8.58-9.82H396l-8.67,10.37A11.34,11.34,0,0,1,393.53,21a18.24,18.24,0,0,1,2.92,7.92h-2.52a21.13,21.13,0,0,0-1.45-5,10,10,0,0,0-2.42-3.41,9.1,9.1,0,0,0-3.56-1.93,16.2,16.2,0,0,0-4.88-.54V28.89Z"/><path class="cls-2" d="M411.6,28.89h-2.3V8.36h-7.56v-2h17.41v2H411.6Z"/><path class="cls-2" d="M452.77,6.31V28.89h-2.3V8.42H438.8V28.89h-2.3V6.31Z"/><path class="cls-2" d="M464.64,27.36a1.73,1.73,0,0,1-.48,1.2,1.73,1.73,0,0,1-2.49,0,1.73,1.73,0,0,1,0-2.39,1.73,1.73,0,0,1,2.49,0A1.73,1.73,0,0,1,464.64,27.36Z"/><path class="cls-2" d="M492.06,25.23a9.45,9.45,0,0,1-1.39,1.63,9,9,0,0,1-1.88,1.35,10.52,10.52,0,0,1-2.36.92,11.12,11.12,0,0,1-2.82.34,12.27,12.27,0,0,1-4.72-.89,11,11,0,0,1-6.17-6.22,12.55,12.55,0,0,1-.88-4.75,12.35,12.35,0,0,1,.89-4.75,11.21,11.21,0,0,1,6.2-6.22,12.08,12.08,0,0,1,4.67-.89,11.65,11.65,0,0,1,4.69,1,9.58,9.58,0,0,1,1.91,1.13,6.6,6.6,0,0,1,1.43,1.49l-1.91,1.4a5.81,5.81,0,0,0-.94-1.08,6.45,6.45,0,0,0-1.39-1A8.73,8.73,0,0,0,485.67,8a7.71,7.71,0,0,0-2-.26,9.37,9.37,0,0,0-3.94.79,8.86,8.86,0,0,0-3,2.15,9.35,9.35,0,0,0-1.85,3.13,11,11,0,0,0-.64,3.75,10.81,10.81,0,0,0,.65,3.75,9.57,9.57,0,0,0,1.87,3.13,8.84,8.84,0,0,0,2.95,2.15,9.28,9.28,0,0,0,3.91.79,8.83,8.83,0,0,0,3.7-.8,7,7,0,0,0,2.93-2.55Z"/><path class="cls-2" d="M501.88,27.36a1.73,1.73,0,0,1-.48,1.2,1.73,1.73,0,0,1-2.49,0,1.73,1.73,0,0,1,0-2.39,1.73,1.73,0,0,1,2.49,0A1.73,1.73,0,0,1,501.88,27.36Z"/><path class="cls-2" d="M529.53,16.93a5.82,5.82,0,0,1,3.06,2.14A6.24,6.24,0,0,1,533.81,23a6,6,0,0,1-.59,2.69,6.35,6.35,0,0,1-1.58,2A7.14,7.14,0,0,1,529.33,29a8.45,8.45,0,0,1-5.52,0,7.13,7.13,0,0,1-2.31-1.31,6.32,6.32,0,0,1-1.58-2,6,6,0,0,1-.59-2.69,6.77,6.77,0,0,1,.32-2.12,6.19,6.19,0,0,1,.89-1.75,5.71,5.71,0,0,1,1.36-1.32,6.2,6.2,0,0,1,1.71-.83v-.06a4.48,4.48,0,0,1-1.39-.75,4.9,4.9,0,0,1-1.07-1.18,6,6,0,0,1-.7-1.5,5.57,5.57,0,0,1-.25-1.67,5.91,5.91,0,0,1,.51-2.49,5.65,5.65,0,0,1,1.39-1.9,6.39,6.39,0,0,1,2-1.21,7.17,7.17,0,0,1,4.9,0,6.36,6.36,0,0,1,2,1.21,5.67,5.67,0,0,1,1.39,1.9,5.93,5.93,0,0,1,.51,2.49,5.57,5.57,0,0,1-.26,1.67,6,6,0,0,1-.7,1.5,4.92,4.92,0,0,1-1.07,1.18,4.48,4.48,0,0,1-1.39.75Zm-7.91,5.77a5.17,5.17,0,0,0,.35,1.91,4.3,4.3,0,0,0,1,1.53,4.74,4.74,0,0,0,1.56,1,5.77,5.77,0,0,0,4,0,4.75,4.75,0,0,0,1.56-1,4.33,4.33,0,0,0,1-1.53,5.19,5.19,0,0,0,.35-1.91,5,5,0,0,0-.35-1.88,4.39,4.39,0,0,0-1-1.5,4.56,4.56,0,0,0-1.56-1,6,6,0,0,0-4,0,4.55,4.55,0,0,0-1.56,1,4.37,4.37,0,0,0-1,1.5A4.93,4.93,0,0,0,521.62,22.71Zm.8-10.81a4,4,0,0,0,.32,1.63,3.83,3.83,0,0,0,.89,1.28,4.18,4.18,0,0,0,1.32.84,4.44,4.44,0,0,0,3.22,0,4.2,4.2,0,0,0,1.32-.84,3.84,3.84,0,0,0,.89-1.28,4,4,0,0,0,.32-1.63,4.38,4.38,0,0,0-.32-1.67,4,4,0,0,0-.88-1.34A4.11,4.11,0,0,0,528.21,8a4.38,4.38,0,0,0-3.28,0,4.09,4.09,0,0,0-1.31.88,4,4,0,0,0-.88,1.34A4.38,4.38,0,0,0,522.42,11.9Z"/><path class="cls-2" d="M552.72,21.4H556v2h-3.32v5.45h-2.23V23.44H540.15V21.21l9.57-14.89h3ZM550.49,8.9h-.06l-7.88,12.5h7.94Z"/></svg>